<?xml version="1.0" standalone="no"?>
<!DOCTYPE svg PUBLIC "-//W3C//DTD SVG 20010904//EN"
 "http://www.w3.org/TR/2001/REC-SVG-20010904/DTD/svg10.dtd">
<svg version="1.0" xmlns="http://www.w3.org/2000/svg"
 width="544.000000pt" height="544.000000pt" viewBox="0 0 544.000000 544.000000"
 preserveAspectRatio="xMidYMid meet">
<metadata>
Created by potrace 1.11, written by Peter Selinger 2001-2013
</metadata>
<g transform="translate(0.000000,544.000000) scale(0.100000,-0.100000)"
fill="#000000" stroke="none">
<path d="M1260 5261 c-132 -42 -236 -146 -280 -281 -10 -31 -15 -88 -15 -177
0 -73 -2 -133 -5 -133 -3 0 -5 -25 -5 -55 0 -30 2 -55 5 -55 6 0 4 -119 -3
-126 -2 -2 -1 -22 3 -42 4 -21 4 -46 0 -57 -3 -10 -4 -37 -1 -59 3 -23 4 -75
1 -116 -3 -41 -2 -96 1 -122 3 -26 2 -52 -1 -58 -4 -6 -4 -31 0 -55 4 -25 5
-47 2 -49 -6 -7 -8 -116 -2 -116 3 0 5 -27 5 -60 0 -33 -2 -60 -5 -60 -3 0 -3
-41 0 -90 3 -50 3 -98 0 -106 -3 -8 -3 -44 0 -80 3 -36 4 -67 2 -69 -2 -2 -3
-59 -2 -127 1 -67 0 -139 0 -158 -1 -19 -2 -42 -1 -50 0 -8 0 -40 0 -70 -1
-30 -1 -62 0 -70 1 -8 1 -33 0 -55 -1 -22 -1 -46 -1 -52 1 -7 1 -61 1 -120 0
-128 1 -233 3 -242 0 -3 0 -10 -1 -16 -4 -22 -1 -247 3 -254 3 -4 1 -13 -3
-19 -4 -7 -5 -33 -1 -57 4 -25 5 -47 2 -49 -6 -7 -8 -116 -2 -116 3 0 5 -27 5
-60 0 -33 -2 -60 -5 -60 -3 0 -3 -56 0 -125 3 -69 3 -125 0 -125 -3 0 -5 -25
-5 -55 0 -30 2 -55 5 -55 4 0 4 -117 -1 -130 -1 -3 -1 -8 -1 -11 1 -7 2 -48 2
-124 1 -27 2 -98 3 -158 1 -59 0 -107 -3 -107 -3 0 -5 -25 -5 -55 0 -30 4 -55
8 -55 5 0 6 -4 3 -8 -7 -12 -8 -76 -2 -152 13 -183 119 -320 293 -379 57 -20
84 -20 1598 -20 1002 -1 1554 3 1580 9 22 6 47 12 56 14 46 12 129 65 181 117
71 70 116 160 124 245 8 86 10 174 4 174 -3 0 -5 27 -5 60 0 33 2 60 5 60 3 0
4 46 3 102 -2 111 -3 180 -4 242 0 21 0 42 -1 45 0 3 0 8 1 11 5 13 5 120 1
120 -3 0 -5 27 -5 60 0 33 2 60 5 60 3 0 4 46 3 102 -2 111 -3 180 -4 242 0
21 0 42 -1 45 0 3 0 8 1 11 5 13 5 120 1 120 -3 0 -5 27 -5 60 0 33 2 60 5 60
3 0 4 46 3 102 -2 111 -3 180 -4 242 0 21 0 42 -1 45 0 3 0 8 1 11 5 13 5 120
1 120 -3 0 -5 27 -5 60 0 33 2 60 5 60 3 0 4 46 3 102 -2 111 -3 180 -4 242 0
21 0 42 -1 45 0 3 0 8 1 11 5 13 5 120 1 120 -3 0 -5 27 -5 60 0 33 2 60 5 60
3 0 4 46 3 102 -2 111 -3 180 -4 242 0 21 0 42 -1 45 0 3 0 8 1 11 5 13 5 120
1 120 -3 0 -5 27 -5 60 0 33 2 60 5 60 3 0 4 46 3 102 -2 111 -3 180 -4 242 0
21 0 42 -1 45 0 3 0 8 1 11 5 13 5 120 1 120 -3 0 -5 27 -5 60 0 33 4 60 8 60
5 0 6 3 4 8 -3 4 -7 59 -8 122 -5 159 -29 225 -120 324 -28 31 -57 56 -65 56
-8 0 -14 4 -14 9 0 12 -105 58 -163 70 -32 8 -532 11 -1585 10 -1439 0 -1541
-1 -1592 -18z m162 -621 c51 0 145 0 208 -1 63 0 122 0 130 0 8 0 44 0 80 0
59 0 210 1 235 2 6 0 75 0 155 0 80 0 152 0 160 0 8 0 69 0 135 0 213 -2 289
-2 335 0 25 0 50 1 55 0 16 0 208 0 225 0 8 1 44 1 80 0 84 -2 223 -2 280 0
25 0 50 1 55 0 16 0 209 0 225 0 8 1 56 1 105 0 50 0 97 0 105 0 8 0 83 0 165
0 141 0 171 -1 285 -4 l45 -2 0 -637 0 -638 -40 -1 c-22 -1 -44 -1 -49 0 -5 1
-34 2 -65 1 -76 -1 -76 -1 -156 -1 -38 0 -77 0 -85 0 -8 0 -42 0 -75 0 -33 0
-67 0 -75 0 -8 0 -64 0 -125 0 -60 0 -117 0 -125 0 -8 0 -69 0 -135 0 -213 2
-289 2 -335 0 -25 0 -49 -1 -55 0 -16 0 -209 0 -225 0 -8 -1 -55 -1 -105 0
-49 0 -97 0 -105 0 -8 0 -69 0 -135 0 -213 2 -289 2 -335 0 -25 0 -49 -1 -55
0 -37 1 -212 2 -220 0 -5 -1 -13 -1 -16 -1 -16 3 -281 3 -349 1 -25 0 -52 -1
-60 0 -69 3 -213 0 -220 -4 -6 -4 -10 -2 -10 3 0 5 -11 7 -25 4 -24 -4 -26 -2
-25 29 0 19 0 41 -1 49 -1 8 -1 31 0 50 2 56 3 154 2 168 -1 6 -1 18 -2 25 -1
6 -1 28 0 47 2 56 3 154 2 168 -1 6 -1 18 -2 25 -1 6 0 30 0 52 2 39 2 199 1
324 0 35 -3 68 -6 72 -2 4 -1 10 3 12 5 3 6 40 3 82 -3 42 -3 79 0 81 2 3 3
22 1 44 -2 28 2 41 16 48 9 6 21 8 25 6 4 -3 49 -5 100 -4z m325 -1600 c79 1
79 1 158 1 39 0 77 0 85 1 8 0 33 0 55 -1 22 -1 72 -2 110 -2 39 0 75 -1 81
-1 7 -1 10 -55 10 -162 l-1 -161 -325 0 -325 0 0 160 0 160 40 5 c22 3 43 4
47 2 4 -2 34 -3 65 -2z m1100 0 c65 0 159 0 208 -1 50 0 102 0 116 1 31 0 37
-23 29 -105 -3 -27 -2 -64 1 -82 4 -18 4 -35 1 -38 -4 -3 -5 -23 -3 -45 2 -30
-2 -41 -17 -49 -11 -6 -22 -8 -25 -5 -4 4 -152 6 -217 3 -34 -2 -229 1 -340 4
l-45 2 0 158 0 158 73 -2 c40 -1 75 1 79 4 3 4 9 4 14 1 4 -2 61 -5 126 -4z
m960 0 c65 0 159 0 208 -1 50 0 102 0 118 1 23 0 27 -4 28 -27 1 -16 1 -32 0
-36 -1 -4 -1 -36 -1 -70 0 -34 1 -71 0 -82 0 -11 0 -40 0 -66 l0 -45 -320 0
c-176 0 -321 2 -321 5 -1 4 -2 77 -3 164 l-1 158 73 -2 c40 -1 75 1 79 4 3 4
9 4 14 1 4 -2 61 -5 126 -4z m-1907 -959 c25 0 50 1 55 0 70 -2 217 -2 220 1
3 2 19 2 38 0 l33 -4 0 -159 0 -159 -45 0 c-91 1 -217 1 -261 -1 -25 0 -49 -1
-55 0 -76 3 -217 2 -221 -2 -3 -2 -19 -1 -37 2 l-32 7 0 157 0 157 47 -1 c27
-1 50 0 52 2 2 2 40 3 83 1 43 -1 98 -2 123 -1z m960 0 c25 0 52 1 60 0 69 -3
213 0 220 4 6 4 10 2 10 -3 0 -5 11 -7 25 -4 24 4 26 2 25 -29 0 -19 0 -41 1
-49 0 -8 0 -33 -1 -55 -1 -22 -1 -44 0 -50 1 -5 2 -38 1 -72 l-1 -63 -75 3
c-41 1 -75 -2 -75 -6 0 -5 -4 -6 -10 -2 -5 3 -76 5 -157 5 -81 -1 -168 0 -193
1 -25 0 -65 2 -90 2 l-45 2 0 158 0 157 47 -1 c27 -1 50 0 52 2 2 2 40 3 83 1
43 -1 98 -2 123 -1z m1297 -5 c1 -6 1 -63 2 -126 1 -204 2 -234 7 -241 2 -4 1
-10 -3 -12 -5 -3 -6 -39 -3 -81 3 -42 3 -83 0 -92 -3 -8 -3 -44 0 -80 3 -36 4
-67 2 -69 -3 -2 -3 -212 0 -260 0 -5 0 -26 -1 -45 -2 -55 -3 -133 -2 -150 2
-49 1 -114 -3 -117 -2 -3 -37 -4 -78 -3 -40 1 -80 1 -88 1 -8 0 -42 0 -75 0
-87 -1 -218 -2 -230 -2 -5 -1 -23 -1 -40 0 -16 1 -47 1 -68 1 -47 -1 -57 5
-56 33 1 47 -1 325 -3 336 0 3 0 11 1 16 2 9 1 234 -1 260 0 6 0 26 1 45 2 57
3 154 2 170 -1 8 -1 33 0 55 1 22 1 47 1 55 -1 8 -1 65 -1 125 0 61 0 128 -1
151 l-1 40 319 0 c216 0 319 -3 319 -10z m-2279 -956 c59 1 112 2 117 2 6 0
28 0 50 -1 22 -1 72 -2 110 -2 39 0 75 -1 81 -1 7 -1 10 -55 10 -160 l0 -158
-40 -1 c-23 -1 -45 -1 -50 0 -5 1 -34 2 -65 1 -31 0 -63 -1 -71 -1 -8 0 -67 0
-130 0 -111 0 -152 1 -250 4 l-45 2 -1 145 c0 80 2 151 4 158 3 9 25 12 73 11
38 -1 72 1 76 4 3 4 10 4 15 1 4 -3 57 -5 116 -4z m982 1 c25 0 52 1 60 0 31
-1 209 -2 217 0 4 1 20 1 36 0 23 -1 27 -5 27 -28 -1 -16 -1 -64 0 -108 1 -44
0 -84 0 -90 -1 -5 -1 -27 0 -47 1 -27 -4 -39 -18 -47 -11 -6 -22 -8 -25 -5 -4
4 -152 6 -217 3 -34 -2 -229 1 -340 4 l-45 2 0 158 0 157 47 -1 c27 -1 50 0
52 2 2 2 40 3 83 1 43 -1 98 -2 123 -1z"/>
</g>
</svg>
